<?xml version="1.0" standalone="no"?>
<!DOCTYPE svg PUBLIC "-//W3C//DTD SVG 1.1//EN"
"http://www.w3.org/Graphics/SVG/1.1/DTD/svg11.dtd">

<svg width="536" height="351" view_box="0 0 536 351"
xmlns="http://www.w3.org/2000/svg"
xmlns:link="http://www.w3.org/1999/xlink">\n\n<desc>Généré par Mocodo 2.3.7 le Mon, 06 Jan 2020 10:17:41</desc>

<rect id="frame" x="0" y="0" width="536" height="351" fill="#ffffbf" stroke="none" stroke-width="0"/>

<!-- Association ASK -->
<line x1="89" y1="206" x2="232" y2="206" stroke="#74add1" stroke-width="1.5"/>
<text x="136" y="223.0" fill="#d73027" font-family="Arial" font-size="12">1,1</text>
<path d="M 130.0 206.0 L 142.0 200.0 L 138.0 206.0 L 142.0 212.0 Z" fill="#74add1" stroke-width="0"/>
<line x1="347" y1="206" x2="232" y2="206" stroke="#74add1" stroke-width="1.5"/>
<text x="279" y="223.0" fill="#d73027" font-family="Arial" font-size="12">0,N</text>
<path d="M 257.0 206.0 L 269.0 200.0 L 265.0 206.0 L 269.0 212.0 Z" fill="#74add1" stroke-width="0"/>
<g id="association-ASK">
	<path d="M 243 178 a 14 14 90 0 1 14 14 V 205 h -50 V 192 a 14 14 90 0 1 14 -14" fill="#abd9e9" stroke="#abd9e9" stroke-width="0"/>
	<path d="M 257 205.0 v 15 a 14 14 90 0 1 -14 14 H 221 a 14 14 90 0 1 -14 -14 V 205.0 H 50" fill="#e0f3f8" stroke="#e0f3f8" stroke-width="0"/>
	<rect x="207" y="178" width="50" height="56" fill="none" rx="14" stroke="#74add1" stroke-width="3"/>
	<line x1="207" y1="205" x2="257" y2="205" stroke="#74add1" stroke-width="1.5"/>
	<text x="216" y="198.3" fill="#000000" font-family="Arial Black" font-size="13">ASK</text>
</g>

<!-- Association REPLY -->
<line x1="232" y1="54" x2="347" y2="54" stroke="#74add1" stroke-width="1.5"/>
<text x="286" y="71.0" fill="#d73027" font-family="Arial" font-size="12">1,1</text>
<path d="M 280.0 54.0 L 292.0 48.0 L 288.0 54.0 L 292.0 60.0 Z" fill="#74add1" stroke-width="0"/>
<line x1="347" y1="206" x2="347" y2="54" stroke="#74add1" stroke-width="1.5"/>
<text x="353.0" y="116" fill="#d73027" font-family="Arial" font-size="12">0,N</text>
<path d="M 347.0 82.0 L 353.0 94.0 L 347.0 90.0 L 341.0 94.0 Z" fill="#74add1" stroke-width="0"/>
<g id="association-REPLY">
	<path d="M 367 26 a 14 14 90 0 1 14 14 V 53 h -68 V 40 a 14 14 90 0 1 14 -14" fill="#abd9e9" stroke="#abd9e9" stroke-width="0"/>
	<path d="M 381 53.0 v 15 a 14 14 90 0 1 -14 14 H 327 a 14 14 90 0 1 -14 -14 V 53.0 H 68" fill="#e0f3f8" stroke="#e0f3f8" stroke-width="0"/>
	<rect x="313" y="26" width="68" height="56" fill="none" rx="14" stroke="#74add1" stroke-width="3"/>
	<line x1="313" y1="53" x2="381" y2="53" stroke="#74add1" stroke-width="1.5"/>
	<text x="322" y="46.3" fill="#000000" font-family="Arial Black" font-size="13">REPLY</text>
</g>

<!-- Association IS REFERENCED BY -->
<line x1="232" y1="314" x2="89" y2="314" stroke="#74add1" stroke-width="1.5"/>
<text x="178" y="331.0" fill="#d73027" font-family="Arial" font-size="12">0,N</text>
<path d="M 205.0 314.0 L 193.0 320.0 L 197.0 314.0 L 193.0 308.0 Z" fill="#74add1" stroke-width="0"/>
<line x1="89" y1="206" x2="89" y2="314" stroke="#74add1" stroke-width="1.5"/>
<text x="95.0" y="277" fill="#d73027" font-family="Arial" font-size="12">0,N</text>
<path d="M 89.0 286.0 L 83.0 274.0 L 89.0 278.0 L 95.0 274.0 Z" fill="#74add1" stroke-width="0"/>
<g id="association-IS REFERENCED BY">
	<path d="M 155 286 a 14 14 90 0 1 14 14 V 313 h -160 V 300 a 14 14 90 0 1 14 -14" fill="#abd9e9" stroke="#abd9e9" stroke-width="0"/>
	<path d="M 169 313.0 v 15 a 14 14 90 0 1 -14 14 H 23 a 14 14 90 0 1 -14 -14 V 313.0 H 160" fill="#e0f3f8" stroke="#e0f3f8" stroke-width="0"/>
	<rect x="9" y="286" width="160" height="56" fill="none" rx="14" stroke="#74add1" stroke-width="3"/>
	<line x1="9" y1="313" x2="169" y2="313" stroke="#74add1" stroke-width="1.5"/>
	<text x="18" y="306.3" fill="#000000" font-family="Arial Black" font-size="13">IS REFERENCED BY</text>
</g>

<!-- Association ATTACHED TO -->
<line x1="89" y1="206" x2="89" y2="54" stroke="#74add1" stroke-width="1.5"/>
<text x="95.0" y="143" fill="#d73027" font-family="Arial" font-size="12">0,N</text>
<path d="M 89.0 152.0 L 83.0 140.0 L 89.0 144.0 L 95.0 140.0 Z" fill="#74add1" stroke-width="0"/>
<line x1="232" y1="54" x2="89" y2="54" stroke="#74add1" stroke-width="1.5"/>
<text x="160" y="71.0" fill="#d73027" font-family="Arial" font-size="12">1,1</text>
<path d="M 151.0 54.0 L 163.0 48.0 L 159.0 54.0 L 163.0 60.0 Z" fill="#74add1" stroke-width="0"/>
<g id="association-ATTACHED TO">
	<path d="M 137 26 a 14 14 90 0 1 14 14 V 53 h -124 V 40 a 14 14 90 0 1 14 -14" fill="#abd9e9" stroke="#abd9e9" stroke-width="0"/>
	<path d="M 151 53.0 v 15 a 14 14 90 0 1 -14 14 H 41 a 14 14 90 0 1 -14 -14 V 53.0 H 124" fill="#e0f3f8" stroke="#e0f3f8" stroke-width="0"/>
	<rect x="27" y="26" width="124" height="56" fill="none" rx="14" stroke="#74add1" stroke-width="3"/>
	<line x1="27" y1="53" x2="151" y2="53" stroke="#74add1" stroke-width="1.5"/>
	<text x="36" y="46.3" fill="#000000" font-family="Arial Black" font-size="13">ATTACHED TO</text>
</g>

<!-- Association POSSESSES -->
<line x1="474" y1="314" x2="474" y2="206" stroke="#74add1" stroke-width="1.5"/>
<text x="480.0" y="278" fill="#d73027" font-family="Arial" font-size="12">0,N</text>
<path d="M 474.0 287.0 L 468.0 275.0 L 474.0 279.0 L 480.0 275.0 Z" fill="#74add1" stroke-width="0"/>
<line x1="347" y1="206" x2="474" y2="206" stroke="#74add1" stroke-width="1.5"/>
<text x="394" y="223.0" fill="#d73027" font-family="Arial" font-size="12">1,1</text>
<path d="M 421.0 206.0 L 409.0 212.0 L 413.0 206.0 L 409.0 200.0 Z" fill="#74add1" stroke-width="0"/>
<g id="association-POSSESSES">
	<path d="M 513 178 a 14 14 90 0 1 14 14 V 205 h -106 V 192 a 14 14 90 0 1 14 -14" fill="#abd9e9" stroke="#abd9e9" stroke-width="0"/>
	<path d="M 527 205.0 v 15 a 14 14 90 0 1 -14 14 H 435 a 14 14 90 0 1 -14 -14 V 205.0 H 106" fill="#e0f3f8" stroke="#e0f3f8" stroke-width="0"/>
	<rect x="421" y="178" width="106" height="56" fill="none" rx="14" stroke="#74add1" stroke-width="3"/>
	<line x1="421" y1="205" x2="527" y2="205" stroke="#74add1" stroke-width="1.5"/>
	<text x="430" y="198.3" fill="#000000" font-family="Arial Black" font-size="13">POSSESSES</text>
</g>

<!-- Entity Answer -->
<g id="entity-Answer">
	<g id="frame-Answer">
		<rect x="184" y="9" width="96" height="28" fill="#fdae61" stroke="#fdae61" stroke-width="0"/>
		<rect x="184" y="37.0" width="96" height="62" fill="#fee090" stroke="#fee090" stroke-width="0"/>
		<rect x="184" y="9" width="96" height="90" fill="none" stroke="#f46d43" stroke-width="3"/>
		<line x1="184" y1="37" x2="280" y2="37" stroke="#f46d43" stroke-width="1.5"/>
	</g>
	<text x="205" y="29.3" fill="#000000" font-family="Arial Black" font-size="13">Answer</text>
	<text x="192" y="53.2" fill="#000000" font-family="Arial" font-size="14">content</text>
	<line x1="192" y1="56" x2="241" y2="56" stroke="#000000" stroke-width="1.2"/>
	<text x="192" y="71.2" fill="#000000" font-family="Arial" font-size="14">is_validated</text>
	<text x="192" y="89.2" fill="#000000" font-family="Arial" font-size="14">is_enable</text>
</g>

<!-- Entity Role -->
<g id="entity-Role">
	<g id="frame-Role">
		<rect x="447" y="287" width="54" height="28" fill="#fdae61" stroke="#fdae61" stroke-width="0"/>
		<rect x="447" y="315.0" width="54" height="26" fill="#fee090" stroke="#fee090" stroke-width="0"/>
		<rect x="447" y="287" width="54" height="54" fill="none" stroke="#f46d43" stroke-width="3"/>
		<line x1="447" y1="315" x2="501" y2="315" stroke="#f46d43" stroke-width="1.5"/>
	</g>
	<text x="457" y="307.3" fill="#000000" font-family="Arial Black" font-size="13">Role</text>
	<text x="455" y="331.2" fill="#000000" font-family="Arial" font-size="14">name</text>
	<line x1="455" y1="334" x2="493" y2="334" stroke="#000000" stroke-width="1.2"/>
</g>

<!-- Entity Tag -->
<g id="entity-Tag">
	<g id="frame-Tag">
		<rect x="205" y="287" width="54" height="28" fill="#fdae61" stroke="#fdae61" stroke-width="0"/>
		<rect x="205" y="315.0" width="54" height="26" fill="#fee090" stroke="#fee090" stroke-width="0"/>
		<rect x="205" y="287" width="54" height="54" fill="none" stroke="#f46d43" stroke-width="3"/>
		<line x1="205" y1="315" x2="259" y2="315" stroke="#f46d43" stroke-width="1.5"/>
	</g>
	<text x="218" y="307.3" fill="#000000" font-family="Arial Black" font-size="13">Tag</text>
	<text x="213" y="331.2" fill="#000000" font-family="Arial" font-size="14">name</text>
	<line x1="213" y1="334" x2="251" y2="334" stroke="#000000" stroke-width="1.2"/>
</g>

<!-- Entity Question -->
<g id="entity-Question">
	<g id="frame-Question">
		<rect x="48" y="152" width="82" height="28" fill="#fdae61" stroke="#fdae61" stroke-width="0"/>
		<rect x="48" y="180.0" width="82" height="80" fill="#fee090" stroke="#fee090" stroke-width="0"/>
		<rect x="48" y="152" width="82" height="108" fill="none" stroke="#f46d43" stroke-width="3"/>
		<line x1="48" y1="180" x2="130" y2="180" stroke="#f46d43" stroke-width="1.5"/>
	</g>
	<text x="56" y="172.3" fill="#000000" font-family="Arial Black" font-size="13">Question</text>
	<text x="56" y="196.2" fill="#000000" font-family="Arial" font-size="14">title</text>
	<line x1="56" y1="199" x2="80" y2="199" stroke="#000000" stroke-width="1.2"/>
	<text x="56" y="214.2" fill="#000000" font-family="Arial" font-size="14">content</text>
	<text x="56" y="232.2" fill="#000000" font-family="Arial" font-size="14">votes</text>
	<text x="56" y="250.2" fill="#000000" font-family="Arial" font-size="14">is_enable</text>
</g>

<!-- Entity User -->
<g id="entity-User">
	<g id="frame-User">
		<rect x="306" y="125" width="82" height="28" fill="#fdae61" stroke="#fdae61" stroke-width="0"/>
		<rect x="306" y="153.0" width="82" height="134" fill="#fee090" stroke="#fee090" stroke-width="0"/>
		<rect x="306" y="125" width="82" height="162" fill="none" stroke="#f46d43" stroke-width="3"/>
		<line x1="306" y1="153" x2="388" y2="153" stroke="#f46d43" stroke-width="1.5"/>
	</g>
	<text x="330" y="145.3" fill="#000000" font-family="Arial Black" font-size="13">User</text>
	<text x="314" y="169.2" fill="#000000" font-family="Arial" font-size="14">username</text>
	<line x1="314" y1="172" x2="380" y2="172" stroke="#000000" stroke-width="1.2"/>
	<text x="314" y="187.2" fill="#000000" font-family="Arial" font-size="14">password</text>
	<text x="314" y="205.2" fill="#000000" font-family="Arial" font-size="14">roles</text>
	<text x="314" y="223.2" fill="#000000" font-family="Arial" font-size="14">firstname</text>
	<text x="314" y="241.2" fill="#000000" font-family="Arial" font-size="14">lastname</text>
	<text x="314" y="259.2" fill="#000000" font-family="Arial" font-size="14">github</text>
	<text x="314" y="277.2" fill="#000000" font-family="Arial" font-size="14">is_enable</text>
</g>
</svg>